<mxfile host="app.diagrams.net" modified="2023-12-30T18:56:44.445Z" agent="Mozilla/5.0 (Macintosh; Intel Mac OS X 10_15_7) AppleWebKit/605.1.15 (KHTML, like Gecko) Version/17.2.1 Safari/605.1.15" etag="BEpvqUJIX-dTIE1m2nQx" version="22.1.16" type="github">
  <diagram id="C5RBs43oDa-KdzZeNtuy" name="Page-1">
    <mxGraphModel dx="707" dy="477" grid="1" gridSize="10" guides="1" tooltips="1" connect="1" arrows="1" fold="1" page="1" pageScale="1" pageWidth="827" pageHeight="1169" math="0" shadow="0">
      <root>
        <mxCell id="WIyWlLk6GJQsqaUBKTNV-0" />
        <mxCell id="WIyWlLk6GJQsqaUBKTNV-1" parent="WIyWlLk6GJQsqaUBKTNV-0" />
        <mxCell id="opi68HAfHCVG0qCcKUOT-35" value="" style="edgeStyle=orthogonalEdgeStyle;rounded=0;orthogonalLoop=1;jettySize=auto;html=1;" edge="1" parent="WIyWlLk6GJQsqaUBKTNV-1" source="opi68HAfHCVG0qCcKUOT-7" target="opi68HAfHCVG0qCcKUOT-34">
          <mxGeometry relative="1" as="geometry" />
        </mxCell>
        <mxCell id="opi68HAfHCVG0qCcKUOT-7" value="While there are accounts in Accounts List" style="strokeWidth=2;html=1;shape=mxgraph.flowchart.loop_limit;whiteSpace=wrap;" vertex="1" parent="WIyWlLk6GJQsqaUBKTNV-1">
          <mxGeometry x="170" y="150" width="100" height="60" as="geometry" />
        </mxCell>
        <mxCell id="opi68HAfHCVG0qCcKUOT-24" value="" style="edgeStyle=orthogonalEdgeStyle;rounded=0;orthogonalLoop=1;jettySize=auto;html=1;" edge="1" parent="WIyWlLk6GJQsqaUBKTNV-1" source="opi68HAfHCVG0qCcKUOT-21">
          <mxGeometry relative="1" as="geometry">
            <mxPoint x="220" y="150" as="targetPoint" />
          </mxGeometry>
        </mxCell>
        <mxCell id="opi68HAfHCVG0qCcKUOT-21" value="Start" style="strokeWidth=2;html=1;shape=mxgraph.flowchart.start_1;whiteSpace=wrap;" vertex="1" parent="WIyWlLk6GJQsqaUBKTNV-1">
          <mxGeometry x="170" y="60" width="100" height="60" as="geometry" />
        </mxCell>
        <mxCell id="opi68HAfHCVG0qCcKUOT-42" value="" style="edgeStyle=orthogonalEdgeStyle;rounded=0;orthogonalLoop=1;jettySize=auto;html=1;" edge="1" parent="WIyWlLk6GJQsqaUBKTNV-1" source="opi68HAfHCVG0qCcKUOT-34" target="opi68HAfHCVG0qCcKUOT-41">
          <mxGeometry relative="1" as="geometry" />
        </mxCell>
        <mxCell id="opi68HAfHCVG0qCcKUOT-34" value="Request Data From Account" style="shape=process;whiteSpace=wrap;html=1;backgroundOutline=1;strokeWidth=2;" vertex="1" parent="WIyWlLk6GJQsqaUBKTNV-1">
          <mxGeometry x="160" y="240" width="120" height="60" as="geometry" />
        </mxCell>
        <mxCell id="opi68HAfHCVG0qCcKUOT-41" value="Place all the event IDs that already exist in a new list" style="shape=process;whiteSpace=wrap;html=1;backgroundOutline=1;strokeWidth=2;" vertex="1" parent="WIyWlLk6GJQsqaUBKTNV-1">
          <mxGeometry x="160" y="330" width="120" height="60" as="geometry" />
        </mxCell>
        <mxCell id="opi68HAfHCVG0qCcKUOT-46" value="While there is an element in the new id&#39;s list" style="strokeWidth=2;html=1;shape=mxgraph.flowchart.loop_limit;whiteSpace=wrap;" vertex="1" parent="WIyWlLk6GJQsqaUBKTNV-1">
          <mxGeometry x="170" y="420" width="100" height="60" as="geometry" />
        </mxCell>
        <mxCell id="opi68HAfHCVG0qCcKUOT-47" style="edgeStyle=orthogonalEdgeStyle;rounded=0;orthogonalLoop=1;jettySize=auto;html=1;exitX=0.5;exitY=1;exitDx=0;exitDy=0;entryX=0.5;entryY=0;entryDx=0;entryDy=0;entryPerimeter=0;" edge="1" parent="WIyWlLk6GJQsqaUBKTNV-1" source="opi68HAfHCVG0qCcKUOT-41" target="opi68HAfHCVG0qCcKUOT-46">
          <mxGeometry relative="1" as="geometry" />
        </mxCell>
        <mxCell id="opi68HAfHCVG0qCcKUOT-53" value="" style="edgeStyle=orthogonalEdgeStyle;rounded=0;orthogonalLoop=1;jettySize=auto;html=1;" edge="1" parent="WIyWlLk6GJQsqaUBKTNV-1" source="opi68HAfHCVG0qCcKUOT-50" target="opi68HAfHCVG0qCcKUOT-52">
          <mxGeometry relative="1" as="geometry" />
        </mxCell>
        <mxCell id="opi68HAfHCVG0qCcKUOT-50" value="Loop through all existing incomplete events" style="strokeWidth=2;html=1;shape=mxgraph.flowchart.loop_limit;whiteSpace=wrap;" vertex="1" parent="WIyWlLk6GJQsqaUBKTNV-1">
          <mxGeometry x="170" y="520" width="100" height="60" as="geometry" />
        </mxCell>
        <mxCell id="opi68HAfHCVG0qCcKUOT-51" style="edgeStyle=orthogonalEdgeStyle;rounded=0;orthogonalLoop=1;jettySize=auto;html=1;exitX=0.5;exitY=1;exitDx=0;exitDy=0;exitPerimeter=0;entryX=0.5;entryY=0;entryDx=0;entryDy=0;entryPerimeter=0;" edge="1" parent="WIyWlLk6GJQsqaUBKTNV-1" source="opi68HAfHCVG0qCcKUOT-46" target="opi68HAfHCVG0qCcKUOT-50">
          <mxGeometry relative="1" as="geometry" />
        </mxCell>
        <mxCell id="opi68HAfHCVG0qCcKUOT-55" value="" style="edgeStyle=orthogonalEdgeStyle;rounded=0;orthogonalLoop=1;jettySize=auto;html=1;" edge="1" parent="WIyWlLk6GJQsqaUBKTNV-1" source="opi68HAfHCVG0qCcKUOT-52" target="opi68HAfHCVG0qCcKUOT-54">
          <mxGeometry relative="1" as="geometry" />
        </mxCell>
        <mxCell id="opi68HAfHCVG0qCcKUOT-56" value="Yes" style="edgeLabel;html=1;align=center;verticalAlign=middle;resizable=0;points=[];" vertex="1" connectable="0" parent="opi68HAfHCVG0qCcKUOT-55">
          <mxGeometry x="-0.1069" y="1" relative="1" as="geometry">
            <mxPoint as="offset" />
          </mxGeometry>
        </mxCell>
        <mxCell id="opi68HAfHCVG0qCcKUOT-59" value="" style="edgeStyle=orthogonalEdgeStyle;rounded=0;orthogonalLoop=1;jettySize=auto;html=1;" edge="1" parent="WIyWlLk6GJQsqaUBKTNV-1" source="opi68HAfHCVG0qCcKUOT-52" target="opi68HAfHCVG0qCcKUOT-58">
          <mxGeometry relative="1" as="geometry" />
        </mxCell>
        <mxCell id="opi68HAfHCVG0qCcKUOT-60" value="No" style="edgeLabel;html=1;align=center;verticalAlign=middle;resizable=0;points=[];" vertex="1" connectable="0" parent="opi68HAfHCVG0qCcKUOT-59">
          <mxGeometry x="-0.5052" relative="1" as="geometry">
            <mxPoint as="offset" />
          </mxGeometry>
        </mxCell>
        <mxCell id="opi68HAfHCVG0qCcKUOT-52" value="If time and name matches" style="rhombus;whiteSpace=wrap;html=1;strokeWidth=2;" vertex="1" parent="WIyWlLk6GJQsqaUBKTNV-1">
          <mxGeometry x="180" y="620" width="80" height="80" as="geometry" />
        </mxCell>
        <mxCell id="opi68HAfHCVG0qCcKUOT-54" value="Add that event id to the object as related event" style="rounded=1;whiteSpace=wrap;html=1;strokeWidth=2;" vertex="1" parent="WIyWlLk6GJQsqaUBKTNV-1">
          <mxGeometry x="320" y="630" width="120" height="60" as="geometry" />
        </mxCell>
        <mxCell id="opi68HAfHCVG0qCcKUOT-57" style="edgeStyle=orthogonalEdgeStyle;rounded=0;orthogonalLoop=1;jettySize=auto;html=1;exitX=1;exitY=0.5;exitDx=0;exitDy=0;entryX=1;entryY=0.5;entryDx=0;entryDy=0;entryPerimeter=0;" edge="1" parent="WIyWlLk6GJQsqaUBKTNV-1" source="opi68HAfHCVG0qCcKUOT-54" target="opi68HAfHCVG0qCcKUOT-46">
          <mxGeometry relative="1" as="geometry" />
        </mxCell>
        <mxCell id="opi68HAfHCVG0qCcKUOT-58" value="Create a new Event Object" style="rounded=1;whiteSpace=wrap;html=1;strokeWidth=2;" vertex="1" parent="WIyWlLk6GJQsqaUBKTNV-1">
          <mxGeometry x="160" y="740" width="120" height="60" as="geometry" />
        </mxCell>
      </root>
    </mxGraphModel>
  </diagram>
</mxfile>
